<svg viewBox="-0.5 -0.5 16 16" fill="none" xmlns="http://www.w3.org/2000/svg" id="Comment--Streamline-Unicons.svg" height="16" width="16"><desc>Comment Streamline Icon: https://streamlinehq.com</desc><path d="M7.510375 0.16c-0.963875 0 -1.9183125 0.18987500000000002 -2.8088125 0.55875 -0.8905000000000001 0.3688125 -1.6995625 0.9094375 -2.381125 1.591C0.944 3.6861875 0.1706875 5.5530625 0.1706875 7.499687499999999c-0.0064375000000000005 1.6948125 0.5804374999999999 3.3384375 1.65875 4.646L0.36150000000000004 13.613625c-0.1018125 0.1031875 -0.17081249999999998 0.23425 -0.19824999999999998 0.376625 -0.0274375 0.1424375 -0.0120625 0.28975 0.044125 0.423375 0.061000000000000006 0.1320625 0.1598125 0.243 0.2839375 0.3188125 0.124125 0.075875 0.268 0.11299999999999999 0.41331249999999997 0.10687500000000001h6.6057500000000005c1.9466249999999998 0 3.8134375 -0.7733125000000001 5.1899375 -2.1496874999999998 1.376375 -1.3765 2.1496874999999998 -3.2433125 2.1496874999999998 -5.1899375 0 -1.9466249999999998 -0.7733125000000001 -3.8135000000000003 -2.1496874999999998 -5.1899375C11.323812499999999 0.9333125 9.457 0.16 7.510375 0.16Zm0 13.211375h-4.836875l0.682625 -0.6825625000000001c0.13668750000000002 -0.1375625 0.21337499999999998 -0.32349999999999995 0.21337499999999998 -0.5174375s-0.0766875 -0.379875 -0.21337499999999998 -0.5174375c-0.961125 -0.9600625 -1.5595625 -2.2235625 -1.6935 -3.5753125000000003 -0.1339375 -1.3518125 0.20493750000000002 -2.7081875 0.9589375 -3.838125C3.3755625 3.110625 4.497999999999999 2.2770625 5.797625 1.881875c1.299625 -0.395125 2.6960625 -0.32743750000000005 3.9514375 0.1915625 1.255375 0.5189375 2.2919375 1.4571875 2.9331249999999995 2.6546874999999996 0.6411875 1.1975624999999999 0.8473124999999999 2.5803749999999996 0.58325 3.912875 -0.264 1.3325 -0.9818749999999999 2.5321875 -2.0313125000000003 3.39475 -1.049375 0.8625625000000001 -2.3653750000000002 1.3345625 -3.72375 1.335625Z" fill="#000000" stroke-width="1"></path></svg>