<svg viewBox="-0.5 -0.5 16 16" fill="none" xmlns="http://www.w3.org/2000/svg" id="Google--Streamline-Unicons-Thinline.svg" height="16" width="16"><desc>Google Streamline Icon: https://streamlinehq.com</desc><path d="M14.5739375 6.164187500000001C14.543937499999998 5.9975000000000005 14.3988125 5.87625 14.2294375 5.8764375H7.6381250000000005C7.445 5.876312500000001 7.2883125 6.0328125 7.28825 6.226000000000001C7.28825 6.2258125 7.28825 6.226125 7.28825 6.226000000000001V8.933562499999999C7.2880625 9.126687500000001 7.4445625 9.2834375 7.63775 9.2835C7.6375 9.2835 7.6378125 9.2835 7.63775 9.2835H10.95225C10.744875 9.8859375 10.344687500000001 10.403125 9.813625 10.754999999999999C9.16475 11.169 8.4075625 11.380999999999998 7.6381250000000005 11.364C5.99775 11.347125 4.553125 10.280375 4.0543125 8.7175625L4.05375 8.71675C3.78575 7.9268125000000005 3.78575 7.070499999999999 4.05375 6.2805625L4.0543125 6.279624999999999C4.55325 4.7170000000000005 5.9978125 3.6502499999999998 7.6381250000000005 3.6333124999999997C8.5425625 3.6186875 9.4165625 3.959875 10.0719375 4.5833125C10.209312500000001 4.7151250000000005 10.4269375 4.7126875 10.5613125 4.577875000000001L12.5686875 2.5705C12.7054375 2.4338125 12.7054375 2.2121874999999998 12.56875 2.0754375C12.5658125 2.0725 12.562750000000001 2.069625 12.559750000000001 2.0668125C11.2270625 0.8182499999999999 9.46425 0.1318125 7.6381875 0.150375C4.85775 0.14200000000000002 2.313 1.71075 1.071375 4.1985C0.028874999999999998 6.275062500000001 0.028874999999999998 8.7221875 1.071375 10.798749999999998C2.3130625 13.2865625 4.8576875 14.8555 7.6381875 14.8475625C9.4285 14.894499999999999 11.169125 14.2555625 12.504 13.061562499999999L12.507124999999998 13.059624999999999C13.969125 11.6495 14.767999999999999 9.687875 14.70725 7.6575625C14.707125000000001 7.15675 14.662437500000001 6.657 14.5739375 6.164125ZM7.6381250000000005 0.8502500000000001C9.16175 0.8344374999999999 10.641125 1.3622500000000002 11.810687499999998 2.338875L10.2988125 3.850625C9.545625 3.2446874999999995 8.60475 2.920375 7.6381250000000005 2.9334375C5.8736250000000005 2.945625 4.2803125 3.9915000000000003 3.56725 5.6055625L1.8311250000000001 4.25925C3.0005625 2.1491875 5.2256875 0.842875 7.6381250000000005 0.8502500000000001ZM0.989375 7.4989375C0.9875625 6.6065 1.1669375 5.722874999999999 1.5165000000000002 4.901625L3.3171250000000003 6.2980625C3.098125 7.0834375000000005 3.098125 7.91375 3.3171250000000003 8.69925L1.51725 10.095062500000001C1.169875 9.273625 0.9904375 8.390875 0.989375 7.4989375ZM7.6381875 14.1476875C5.2255625000000006 14.154937499999999 3.000375 12.8483125 1.8311250000000001 10.738000000000001L3.56725 9.39175C4.280125 11.0059375 5.8736250000000005 12.0518125 7.6381875 12.063875C8.4594375 12.076374999999999 9.269562500000001 11.871937500000001 9.9865625 11.47125L10.0629375 11.530625L11.717062499999999 12.8156875C10.549937499999999 13.7135 9.110125 14.1836875 7.6381250000000005 14.147749999999998ZM12.2446875 12.33925L10.580499999999999 11.046875C11.1911875 10.516000000000002 11.6031875 9.793125 11.7485 8.9971875C11.7838125 8.807375 11.6586875 8.6249375 11.468937500000001 8.5895625C11.447750000000001 8.5855625 11.42625 8.583625 11.4046875 8.583625H7.988125V6.5763125H13.931500000000002C13.982062500000001 6.9345 14.0074375 7.295812499999999 14.007375 7.6575625C14.05775 9.389062500000001 13.424562499999999 11.070875000000001 12.2446875 12.33925Z" fill="#ffffff" stroke-width="1"></path></svg>